<?xml version="1.0" standalone="no"?>
<!DOCTYPE svg PUBLIC "-//W3C//DTD SVG 20010904//EN"
 "http://www.w3.org/TR/2001/REC-SVG-20010904/DTD/svg10.dtd">
<svg version="1.0" xmlns="http://www.w3.org/2000/svg"
 width="272.000000pt" height="272.000000pt" viewBox="0 0 272.000000 272.000000"
 preserveAspectRatio="xMidYMid meet">
<metadata>
Created by potrace 1.14, written by Peter Selinger 2001-2017
</metadata>
<g transform="translate(0.000000,272.000000) scale(0.100000,-0.100000)"
fill="#000000" stroke="none">
<path d="M1679 1947 c-536 -298 -986 -550 -1000 -559 -23 -16 -14 -17 186 -18
116 0 215 -4 221 -8 8 -4 -183 -213 -518 -567 -292 -307 -526 -561 -520 -563
5 -1 84 39 173 91 2319 1333 2139 1229 2139 1239 0 5 -103 8 -230 8 -126 0
-230 4 -230 8 0 4 175 208 390 452 214 245 390 448 390 453 0 4 -6 7 -12 6 -7
0 -452 -244 -989 -542z m207 -114 c-8 -16 -44 -63 -81 -106 -37 -43 -78 -103
-91 -134 -14 -30 -36 -70 -50 -89 -14 -18 -23 -37 -20 -42 3 -5 24 -12 47 -15
54 -7 66 -20 47 -49 -15 -22 -577 -351 -687 -402 -107 -49 -88 -9 79 168 67
71 128 143 137 160 8 17 33 55 55 84 47 63 44 82 -11 82 -100 0 -49 46 205
188 268 148 335 182 362 182 21 0 22 -1 8 -27z"/>
</g>
</svg>
